<svg width="117" height="130" viewBox="0 0 117 130" fill="none" xmlns="http://www.w3.org/2000/svg">
<path d="M6.5 130C4.65833 130 3.11458 129.377 1.86875 128.131C0.622917 126.885 0 125.342 0 123.5V91C0 87.425 1.27292 84.3646 3.81875 81.8187C6.36458 79.2729 9.425 78 13 78V52C13 48.425 14.2729 45.3646 16.8187 42.8187C19.3646 40.2729 22.425 39 26 39H52V29.575C50.05 28.275 48.4792 26.7042 47.2875 24.8625C46.0958 23.0208 45.5 20.8 45.5 18.2C45.5 16.575 45.825 14.9771 46.475 13.4062C47.125 11.8354 48.1 10.4 49.4 9.1L58.5 0L67.6 9.1C68.9 10.4 69.875 11.8354 70.525 13.4062C71.175 14.9771 71.5 16.575 71.5 18.2C71.5 20.8 70.9042 23.0208 69.7125 24.8625C68.5208 26.7042 66.95 28.275 65 29.575V39H91C94.575 39 97.6354 40.2729 100.181 42.8187C102.727 45.3646 104 48.425 104 52V78C107.575 78 110.635 79.2729 113.181 81.8187C115.727 84.3646 117 87.425 117 91V123.5C117 125.342 116.377 126.885 115.131 128.131C113.885 129.377 112.342 130 110.5 130H6.5ZM26 78H91V52H26V78ZM13 117H104V91H13V117Z" fill="black"/>
</svg>
