<svg width="116" height="130" viewBox="0 0 116 130" fill="none" xmlns="http://www.w3.org/2000/svg">
<path d="M43.5 108.333H50.75V79.4444C53.7708 79.4444 56.3385 78.3912 58.4531 76.2847C60.5677 74.1782 61.625 71.6204 61.625 68.6111V46.9444H54.375V68.6111H50.75V46.9444H43.5V68.6111H39.875V46.9444H32.625V68.6111C32.625 71.6204 33.6823 74.1782 35.7969 76.2847C37.9115 78.3912 40.4792 79.4444 43.5 79.4444V108.333ZM72.5 108.333H79.75V46.9444C75.7625 46.9444 72.349 48.3588 69.5094 51.1875C66.6698 54.0162 65.25 57.4167 65.25 61.3889V83.0556H72.5V108.333ZM0 130V43.3333L58 0L116 43.3333V130H0ZM14.5 115.556H101.5V50.5556L58 18.0556L14.5 50.5556V115.556Z" fill="black"/>
</svg>
