<svg width="49" height="49" viewBox="0 0 49 49" fill="none" xmlns="http://www.w3.org/2000/svg">
<path d="M6.74992 48.1663C5.12284 48.1663 3.72995 47.587 2.57127 46.4283C1.41259 45.2696 0.833252 43.8768 0.833252 42.2497C0.833252 40.6226 1.41259 39.2297 2.57127 38.071C3.72995 36.9123 5.12284 36.333 6.74992 36.333C8.377 36.333 9.76988 36.9123 10.9286 38.071C12.0872 39.2297 12.6666 40.6226 12.6666 42.2497C12.6666 43.8768 12.0872 45.2696 10.9286 46.4283C9.76988 47.587 8.377 48.1663 6.74992 48.1663ZM24.4999 48.1663C22.8728 48.1663 21.48 47.587 20.3213 46.4283C19.1626 45.2696 18.5833 43.8768 18.5833 42.2497C18.5833 40.6226 19.1626 39.2297 20.3213 38.071C21.48 36.9123 22.8728 36.333 24.4999 36.333C26.127 36.333 27.5199 36.9123 28.6786 38.071C29.8372 39.2297 30.4166 40.6226 30.4166 42.2497C30.4166 43.8768 29.8372 45.2696 28.6786 46.4283C27.5199 47.587 26.127 48.1663 24.4999 48.1663ZM42.2499 48.1663C40.6228 48.1663 39.23 47.587 38.0713 46.4283C36.9126 45.2696 36.3333 43.8768 36.3333 42.2497C36.3333 40.6226 36.9126 39.2297 38.0713 38.071C39.23 36.9123 40.6228 36.333 42.2499 36.333C43.877 36.333 45.2699 36.9123 46.4286 38.071C47.5872 39.2297 48.1666 40.6226 48.1666 42.2497C48.1666 43.8768 47.5872 45.2696 46.4286 46.4283C45.2699 47.587 43.877 48.1663 42.2499 48.1663ZM6.74992 30.4163C5.12284 30.4163 3.72995 29.837 2.57127 28.6783C1.41259 27.5196 0.833252 26.1268 0.833252 24.4997C0.833252 22.8726 1.41259 21.4797 2.57127 20.321C3.72995 19.1623 5.12284 18.583 6.74992 18.583C8.377 18.583 9.76988 19.1623 10.9286 20.321C12.0872 21.4797 12.6666 22.8726 12.6666 24.4997C12.6666 26.1268 12.0872 27.5196 10.9286 28.6783C9.76988 29.837 8.377 30.4163 6.74992 30.4163ZM24.4999 30.4163C22.8728 30.4163 21.48 29.837 20.3213 28.6783C19.1626 27.5196 18.5833 26.1268 18.5833 24.4997C18.5833 22.8726 19.1626 21.4797 20.3213 20.321C21.48 19.1623 22.8728 18.583 24.4999 18.583C26.127 18.583 27.5199 19.1623 28.6786 20.321C29.8372 21.4797 30.4166 22.8726 30.4166 24.4997C30.4166 26.1268 29.8372 27.5196 28.6786 28.6783C27.5199 29.837 26.127 30.4163 24.4999 30.4163ZM42.2499 30.4163C40.6228 30.4163 39.23 29.837 38.0713 28.6783C36.9126 27.5196 36.3333 26.1268 36.3333 24.4997C36.3333 22.8726 36.9126 21.4797 38.0713 20.321C39.23 19.1623 40.6228 18.583 42.2499 18.583C43.877 18.583 45.2699 19.1623 46.4286 20.321C47.5872 21.4797 48.1666 22.8726 48.1666 24.4997C48.1666 26.1268 47.5872 27.5196 46.4286 28.6783C45.2699 29.837 43.877 30.4163 42.2499 30.4163ZM6.74992 12.6663C5.12284 12.6663 3.72995 12.087 2.57127 10.9283C1.41259 9.76964 0.833252 8.37676 0.833252 6.74967C0.833252 5.12259 1.41259 3.72971 2.57127 2.57103C3.72995 1.41235 5.12284 0.833008 6.74992 0.833008C8.377 0.833008 9.76988 1.41235 10.9286 2.57103C12.0872 3.72971 12.6666 5.12259 12.6666 6.74967C12.6666 8.37676 12.0872 9.76964 10.9286 10.9283C9.76988 12.087 8.377 12.6663 6.74992 12.6663ZM24.4999 12.6663C22.8728 12.6663 21.48 12.087 20.3213 10.9283C19.1626 9.76964 18.5833 8.37676 18.5833 6.74967C18.5833 5.12259 19.1626 3.72971 20.3213 2.57103C21.48 1.41235 22.8728 0.833008 24.4999 0.833008C26.127 0.833008 27.5199 1.41235 28.6786 2.57103C29.8372 3.72971 30.4166 5.12259 30.4166 6.74967C30.4166 8.37676 29.8372 9.76964 28.6786 10.9283C27.5199 12.087 26.127 12.6663 24.4999 12.6663ZM42.2499 12.6663C40.6228 12.6663 39.23 12.087 38.0713 10.9283C36.9126 9.76964 36.3333 8.37676 36.3333 6.74967C36.3333 5.12259 36.9126 3.72971 38.0713 2.57103C39.23 1.41235 40.6228 0.833008 42.2499 0.833008C43.877 0.833008 45.2699 1.41235 46.4286 2.57103C47.5872 3.72971 48.1666 5.12259 48.1666 6.74967C48.1666 8.37676 47.5872 9.76964 46.4286 10.9283C45.2699 12.087 43.877 12.6663 42.2499 12.6663Z" fill="black"/>
</svg>
